<?xml version="1.0" encoding="utf-8" standalone="no"?>
<!DOCTYPE svg PUBLIC "-//W3C//DTD SVG 1.1//EN"
  "http://www.w3.org/Graphics/SVG/1.1/DTD/svg11.dtd">
<svg xmlns:xlink="http://www.w3.org/1999/xlink" width="460.8pt" height="345.6pt" viewBox="0 0 460.8 345.6" xmlns="http://www.w3.org/2000/svg" version="1.1">
 <metadata>
  <rdf:RDF xmlns:dc="http://purl.org/dc/elements/1.1/" xmlns:cc="http://creativecommons.org/ns#" xmlns:rdf="http://www.w3.org/1999/02/22-rdf-syntax-ns#">
   <cc:Work>
    <dc:type rdf:resource="http://purl.org/dc/dcmitype/StillImage"/>
    <dc:date>2023-01-17T20:07:43.117426</dc:date>
    <dc:format>image/svg+xml</dc:format>
    <dc:creator>
     <cc:Agent>
      <dc:title>Matplotlib v3.5.1, https://matplotlib.org/</dc:title>
     </cc:Agent>
    </dc:creator>
   </cc:Work>
  </rdf:RDF>
 </metadata>
 <defs>
  <style type="text/css">*{stroke-linejoin: round; stroke-linecap: butt}</style>
 </defs>
 <g id="figure_1">
  <g id="patch_1">
   <path d="M 0 345.6 
L 460.8 345.6 
L 460.8 0 
L 0 0 
z
" style="fill: #ffffff"/>
  </g>
  <g id="axes_1">
   <g id="patch_2">
    <path d="M 65.68 293.96 
L 419.625 293.96 
L 419.625 32.04 
L 65.68 32.04 
z
" style="fill: #ffffff"/>
   </g>
   <g id="PathCollection_1">
    <defs>
     <path id="m3922ef9c4e" d="M 0 -3 
L -3 3 
L 3 3 
z
" style="stroke: #ff0000"/>
    </defs>
    <g clip-path="url(#p3e340c6443)">
     <use xlink:href="#m3922ef9c4e" x="129.875907" y="112.071111" style="fill: #ff0000; stroke: #ff0000"/>
    </g>
   </g>
   <g id="PathCollection_2">
    <g clip-path="url(#p3e340c6443)">
     <use xlink:href="#m3922ef9c4e" x="112.525662" y="272.133333" style="fill: #ff0000; stroke: #ff0000"/>
    </g>
   </g>
   <g id="PathCollection_3">
    <g clip-path="url(#p3e340c6443)">
     <use xlink:href="#m3922ef9c4e" x="95.175417" y="112.071111" style="fill: #ff0000; stroke: #ff0000"/>
    </g>
   </g>
   <g id="PathCollection_4">
    <g clip-path="url(#p3e340c6443)">
     <use xlink:href="#m3922ef9c4e" x="181.926642" y="53.866667" style="fill: #ff0000; stroke: #ff0000"/>
    </g>
   </g>
   <g id="PathCollection_5">
    <g clip-path="url(#p3e340c6443)">
     <use xlink:href="#m3922ef9c4e" x="390.129583" y="243.031111" style="fill: #ff0000; stroke: #ff0000"/>
    </g>
   </g>
   <g id="PathCollection_6">
    <g clip-path="url(#p3e340c6443)">
     <use xlink:href="#m3922ef9c4e" x="320.728603" y="53.866667" style="fill: #ff0000; stroke: #ff0000"/>
    </g>
   </g>
   <g id="PathCollection_7">
    <defs>
     <path id="m90eb936c2a" d="M -3 3 
L 3 3 
L 3 -3 
L -3 -3 
z
" style="stroke: #0000ff"/>
    </defs>
    <g clip-path="url(#p3e340c6443)">
     <use xlink:href="#m90eb936c2a" x="147.226152" y="112.071111" style="fill: #0000ff; stroke: #0000ff"/>
    </g>
   </g>
   <g id="PathCollection_8">
    <g clip-path="url(#p3e340c6443)">
     <use xlink:href="#m90eb936c2a" x="77.825172" y="112.071111" style="fill: #0000ff; stroke: #0000ff"/>
    </g>
   </g>
   <g id="PathCollection_9">
    <g clip-path="url(#p3e340c6443)">
     <use xlink:href="#m90eb936c2a" x="181.926642" y="53.866667" style="fill: #0000ff; stroke: #0000ff"/>
    </g>
   </g>
   <g id="PathCollection_10">
    <g clip-path="url(#p3e340c6443)">
     <use xlink:href="#m90eb936c2a" x="164.576397" y="53.866667" style="fill: #0000ff; stroke: #0000ff"/>
    </g>
   </g>
   <g id="PathCollection_11">
    <g clip-path="url(#p3e340c6443)">
     <use xlink:href="#m90eb936c2a" x="129.875907" y="272.133333" style="fill: #0000ff; stroke: #0000ff"/>
    </g>
   </g>
   <g id="PathCollection_12">
    <g clip-path="url(#p3e340c6443)">
     <use xlink:href="#m90eb936c2a" x="112.525662" y="243.031111" style="fill: #0000ff; stroke: #0000ff"/>
    </g>
   </g>
   <g id="PathCollection_13">
    <g clip-path="url(#p3e340c6443)">
     <use xlink:href="#m90eb936c2a" x="77.825172" y="286.684444" style="fill: #0000ff; stroke: #0000ff"/>
    </g>
   </g>
   <g id="PathCollection_14">
    <g clip-path="url(#p3e340c6443)">
     <use xlink:href="#m90eb936c2a" x="372.779338" y="257.582222" style="fill: #0000ff; stroke: #0000ff"/>
    </g>
   </g>
   <g id="PathCollection_15">
    <g clip-path="url(#p3e340c6443)">
     <use xlink:href="#m90eb936c2a" x="390.129583" y="228.48" style="fill: #0000ff; stroke: #0000ff"/>
    </g>
   </g>
   <g id="PathCollection_16">
    <g clip-path="url(#p3e340c6443)">
     <use xlink:href="#m90eb936c2a" x="303.378358" y="53.866667" style="fill: #0000ff; stroke: #0000ff"/>
    </g>
   </g>
   <g id="matplotlib.axis_1">
    <g id="xtick_1">
     <g id="line2d_1">
      <defs>
       <path id="m8999a34428" d="M 0 0 
L 0 3.5 
" style="stroke: #000000; stroke-width: 0.8"/>
      </defs>
      <g>
       <use xlink:href="#m8999a34428" x="77.825172" y="293.96" style="stroke: #000000; stroke-width: 0.8"/>
      </g>
     </g>
     <g id="text_1">
      <!-- 0 -->
      <g transform="translate(70.826422 317.676562)scale(0.22 -0.22)">
       <defs>
        <path id="DejaVuSans-30" d="M 2034 4250 
Q 1547 4250 1301 3770 
Q 1056 3291 1056 2328 
Q 1056 1369 1301 889 
Q 1547 409 2034 409 
Q 2525 409 2770 889 
Q 3016 1369 3016 2328 
Q 3016 3291 2770 3770 
Q 2525 4250 2034 4250 
z
M 2034 4750 
Q 2819 4750 3233 4129 
Q 3647 3509 3647 2328 
Q 3647 1150 3233 529 
Q 2819 -91 2034 -91 
Q 1250 -91 836 529 
Q 422 1150 422 2328 
Q 422 3509 836 4129 
Q 1250 4750 2034 4750 
z
" transform="scale(0.015625)"/>
       </defs>
       <use xlink:href="#DejaVuSans-30"/>
      </g>
     </g>
    </g>
    <g id="xtick_2">
     <g id="line2d_2">
      <g>
       <use xlink:href="#m8999a34428" x="164.576397" y="293.96" style="stroke: #000000; stroke-width: 0.8"/>
      </g>
     </g>
     <g id="text_2">
      <!-- 5 -->
      <g transform="translate(157.577647 317.676562)scale(0.22 -0.22)">
       <defs>
        <path id="DejaVuSans-35" d="M 691 4666 
L 3169 4666 
L 3169 4134 
L 1269 4134 
L 1269 2991 
Q 1406 3038 1543 3061 
Q 1681 3084 1819 3084 
Q 2600 3084 3056 2656 
Q 3513 2228 3513 1497 
Q 3513 744 3044 326 
Q 2575 -91 1722 -91 
Q 1428 -91 1123 -41 
Q 819 9 494 109 
L 494 744 
Q 775 591 1075 516 
Q 1375 441 1709 441 
Q 2250 441 2565 725 
Q 2881 1009 2881 1497 
Q 2881 1984 2565 2268 
Q 2250 2553 1709 2553 
Q 1456 2553 1204 2497 
Q 953 2441 691 2322 
L 691 4666 
z
" transform="scale(0.015625)"/>
       </defs>
       <use xlink:href="#DejaVuSans-35"/>
      </g>
     </g>
    </g>
    <g id="xtick_3">
     <g id="line2d_3">
      <g>
       <use xlink:href="#m8999a34428" x="251.327623" y="293.96" style="stroke: #000000; stroke-width: 0.8"/>
      </g>
     </g>
     <g id="text_3">
      <!-- 10 -->
      <g transform="translate(237.330123 317.676562)scale(0.22 -0.22)">
       <defs>
        <path id="DejaVuSans-31" d="M 794 531 
L 1825 531 
L 1825 4091 
L 703 3866 
L 703 4441 
L 1819 4666 
L 2450 4666 
L 2450 531 
L 3481 531 
L 3481 0 
L 794 0 
L 794 531 
z
" transform="scale(0.015625)"/>
       </defs>
       <use xlink:href="#DejaVuSans-31"/>
       <use xlink:href="#DejaVuSans-30" x="63.623047"/>
      </g>
     </g>
    </g>
    <g id="xtick_4">
     <g id="line2d_4">
      <g>
       <use xlink:href="#m8999a34428" x="338.078848" y="293.96" style="stroke: #000000; stroke-width: 0.8"/>
      </g>
     </g>
     <g id="text_4">
      <!-- 15 -->
      <g transform="translate(324.081348 317.676562)scale(0.22 -0.22)">
       <use xlink:href="#DejaVuSans-31"/>
       <use xlink:href="#DejaVuSans-35" x="63.623047"/>
      </g>
     </g>
    </g>
   </g>
   <g id="matplotlib.axis_2">
    <g id="ytick_1">
     <g id="line2d_5">
      <defs>
       <path id="me405062884" d="M 0 0 
L -3.5 0 
" style="stroke: #000000; stroke-width: 0.8"/>
      </defs>
      <g>
       <use xlink:href="#me405062884" x="65.68" y="257.582222" style="stroke: #000000; stroke-width: 0.8"/>
      </g>
     </g>
     <g id="text_5">
      <!-- 5 -->
      <g transform="translate(44.6825 265.940503)scale(0.22 -0.22)">
       <use xlink:href="#DejaVuSans-35"/>
      </g>
     </g>
    </g>
    <g id="ytick_2">
     <g id="line2d_6">
      <g>
       <use xlink:href="#me405062884" x="65.68" y="184.826667" style="stroke: #000000; stroke-width: 0.8"/>
      </g>
     </g>
     <g id="text_6">
      <!-- 10 -->
      <g transform="translate(30.685 193.184948)scale(0.22 -0.22)">
       <use xlink:href="#DejaVuSans-31"/>
       <use xlink:href="#DejaVuSans-30" x="63.623047"/>
      </g>
     </g>
    </g>
    <g id="ytick_3">
     <g id="line2d_7">
      <g>
       <use xlink:href="#me405062884" x="65.68" y="112.071111" style="stroke: #000000; stroke-width: 0.8"/>
      </g>
     </g>
     <g id="text_7">
      <!-- 15 -->
      <g transform="translate(30.685 120.429392)scale(0.22 -0.22)">
       <use xlink:href="#DejaVuSans-31"/>
       <use xlink:href="#DejaVuSans-35" x="63.623047"/>
      </g>
     </g>
    </g>
    <g id="ytick_4">
     <g id="line2d_8">
      <g>
       <use xlink:href="#me405062884" x="65.68" y="39.315556" style="stroke: #000000; stroke-width: 0.8"/>
      </g>
     </g>
     <g id="text_8">
      <!-- 20 -->
      <g transform="translate(30.685 47.673837)scale(0.22 -0.22)">
       <defs>
        <path id="DejaVuSans-32" d="M 1228 531 
L 3431 531 
L 3431 0 
L 469 0 
L 469 531 
Q 828 903 1448 1529 
Q 2069 2156 2228 2338 
Q 2531 2678 2651 2914 
Q 2772 3150 2772 3378 
Q 2772 3750 2511 3984 
Q 2250 4219 1831 4219 
Q 1534 4219 1204 4116 
Q 875 4013 500 3803 
L 500 4441 
Q 881 4594 1212 4672 
Q 1544 4750 1819 4750 
Q 2544 4750 2975 4387 
Q 3406 4025 3406 3419 
Q 3406 3131 3298 2873 
Q 3191 2616 2906 2266 
Q 2828 2175 2409 1742 
Q 1991 1309 1228 531 
z
" transform="scale(0.015625)"/>
       </defs>
       <use xlink:href="#DejaVuSans-32"/>
       <use xlink:href="#DejaVuSans-30" x="63.623047"/>
      </g>
     </g>
    </g>
   </g>
   <g id="line2d_9">
    <defs>
     <path id="m95863f6b34" d="M 0 1.5 
C 0.397805 1.5 0.77937 1.341951 1.06066 1.06066 
C 1.341951 0.77937 1.5 0.397805 1.5 0 
C 1.5 -0.397805 1.341951 -0.77937 1.06066 -1.06066 
C 0.77937 -1.341951 0.397805 -1.5 0 -1.5 
C -0.397805 -1.5 -0.77937 -1.341951 -1.06066 -1.06066 
C -1.341951 -0.77937 -1.5 -0.397805 -1.5 0 
C -1.5 0.397805 -1.341951 0.77937 -1.06066 1.06066 
C -0.77937 1.341951 -0.397805 1.5 0 1.5 
z
" style="stroke: #1f77b4"/>
    </defs>
    <g clip-path="url(#p3e340c6443)">
     <use xlink:href="#m95863f6b34" x="129.875907" y="112.071111" style="fill: #1f77b4; stroke: #1f77b4"/>
     <use xlink:href="#m95863f6b34" x="112.525662" y="272.133333" style="fill: #1f77b4; stroke: #1f77b4"/>
     <use xlink:href="#m95863f6b34" x="95.175417" y="112.071111" style="fill: #1f77b4; stroke: #1f77b4"/>
     <use xlink:href="#m95863f6b34" x="181.926642" y="53.866667" style="fill: #1f77b4; stroke: #1f77b4"/>
     <use xlink:href="#m95863f6b34" x="390.129583" y="243.031111" style="fill: #1f77b4; stroke: #1f77b4"/>
     <use xlink:href="#m95863f6b34" x="320.728603" y="53.866667" style="fill: #1f77b4; stroke: #1f77b4"/>
    </g>
   </g>
   <g id="line2d_10">
    <defs>
     <path id="m61a139ae5e" d="M 0 3 
C 0.795609 3 1.55874 2.683901 2.12132 2.12132 
C 2.683901 1.55874 3 0.795609 3 0 
C 3 -0.795609 2.683901 -1.55874 2.12132 -2.12132 
C 1.55874 -2.683901 0.795609 -3 0 -3 
C -0.795609 -3 -1.55874 -2.683901 -2.12132 -2.12132 
C -2.683901 -1.55874 -3 -0.795609 -3 0 
C -3 0.795609 -2.683901 1.55874 -2.12132 2.12132 
C -1.55874 2.683901 -0.795609 3 0 3 
z
" style="stroke: #ff7f0e"/>
    </defs>
    <g clip-path="url(#p3e340c6443)">
     <use xlink:href="#m61a139ae5e" x="112.525662" y="191.440808" style="fill: #ff7f0e; stroke: #ff7f0e"/>
     <use xlink:href="#m61a139ae5e" x="242.951642" y="201.384828" style="fill: #ff7f0e; stroke: #ff7f0e"/>
     <use xlink:href="#m61a139ae5e" x="263.931102" y="172.060126" style="fill: #ff7f0e; stroke: #ff7f0e"/>
     <use xlink:href="#m61a139ae5e" x="112.525662" y="55.685556" style="fill: #ff7f0e; stroke: #ff7f0e"/>
     <use xlink:href="#m61a139ae5e" x="251.327623" y="142.992222" style="fill: #ff7f0e; stroke: #ff7f0e"/>
    </g>
   </g>
   <g id="LineCollection_1">
    <path d="M 112.525662 191.440808 
L 242.951642 201.384828 
" clip-path="url(#p3e340c6443)" style="fill: none; stroke: #000000"/>
    <path d="M 242.951642 201.384828 
L 263.931102 172.060126 
" clip-path="url(#p3e340c6443)" style="fill: none; stroke: #000000"/>
    <path d="M 112.525662 55.685556 
L 251.327623 142.992222 
" clip-path="url(#p3e340c6443)" style="fill: none; stroke: #000000"/>
    <path d="M 112.525662 191.440808 
L 112.525662 55.685556 
" clip-path="url(#p3e340c6443)" style="fill: none; stroke: #000000"/>
    <path d="M 263.931102 172.060126 
L 251.327623 142.992222 
" clip-path="url(#p3e340c6443)" style="fill: none; stroke: #000000"/>
   </g>
   <g id="LineCollection_2">
    <path d="M 112.525662 191.440808 
L -1 200.096303 
" clip-path="url(#p3e340c6443)" style="fill: none; stroke-dasharray: 3.7,1.6; stroke-dashoffset: 0; stroke: #000000"/>
    <path d="M 242.951642 201.384828 
L 264.59534 346.6 
" clip-path="url(#p3e340c6443)" style="fill: none; stroke-dasharray: 3.7,1.6; stroke-dashoffset: 0; stroke: #000000"/>
    <path d="M 263.931102 172.060126 
L 461.8 120.999667 
" clip-path="url(#p3e340c6443)" style="fill: none; stroke-dasharray: 3.7,1.6; stroke-dashoffset: 0; stroke: #000000"/>
    <path d="M 112.525662 55.685556 
L 58.453734 -1 
" clip-path="url(#p3e340c6443)" style="fill: none; stroke-dasharray: 3.7,1.6; stroke-dashoffset: 0; stroke: #000000"/>
    <path d="M 251.327623 142.992222 
L 251.327623 -1 
" clip-path="url(#p3e340c6443)" style="fill: none; stroke-dasharray: 3.7,1.6; stroke-dashoffset: 0; stroke: #000000"/>
   </g>
   <g id="patch_3">
    <path d="M 65.68 293.96 
L 65.68 32.04 
" style="fill: none; stroke: #000000; stroke-width: 0.8; stroke-linejoin: miter; stroke-linecap: square"/>
   </g>
   <g id="patch_4">
    <path d="M 419.625 293.96 
L 419.625 32.04 
" style="fill: none; stroke: #000000; stroke-width: 0.8; stroke-linejoin: miter; stroke-linecap: square"/>
   </g>
   <g id="patch_5">
    <path d="M 65.68 293.96 
L 419.625 293.96 
" style="fill: none; stroke: #000000; stroke-width: 0.8; stroke-linejoin: miter; stroke-linecap: square"/>
   </g>
   <g id="patch_6">
    <path d="M 65.68 32.04 
L 419.625 32.04 
" style="fill: none; stroke: #000000; stroke-width: 0.8; stroke-linejoin: miter; stroke-linecap: square"/>
   </g>
   <g id="text_9">
    <!-- C0 -->
    <g transform="translate(129.875907 119.346667)scale(0.22 -0.22)">
     <defs>
      <path id="DejaVuSans-43" d="M 4122 4306 
L 4122 3641 
Q 3803 3938 3442 4084 
Q 3081 4231 2675 4231 
Q 1875 4231 1450 3742 
Q 1025 3253 1025 2328 
Q 1025 1406 1450 917 
Q 1875 428 2675 428 
Q 3081 428 3442 575 
Q 3803 722 4122 1019 
L 4122 359 
Q 3791 134 3420 21 
Q 3050 -91 2638 -91 
Q 1578 -91 968 557 
Q 359 1206 359 2328 
Q 359 3453 968 4101 
Q 1578 4750 2638 4750 
Q 3056 4750 3426 4639 
Q 3797 4528 4122 4306 
z
" transform="scale(0.015625)"/>
     </defs>
     <use xlink:href="#DejaVuSans-43"/>
     <use xlink:href="#DejaVuSans-30" x="69.824219"/>
    </g>
   </g>
   <g id="text_10">
    <!-- C1 -->
    <g transform="translate(112.525662 279.408889)scale(0.22 -0.22)">
     <use xlink:href="#DejaVuSans-43"/>
     <use xlink:href="#DejaVuSans-31" x="69.824219"/>
    </g>
   </g>
   <g id="text_11">
    <!-- C2 -->
    <g transform="translate(95.175417 119.346667)scale(0.22 -0.22)">
     <use xlink:href="#DejaVuSans-43"/>
     <use xlink:href="#DejaVuSans-32" x="69.824219"/>
    </g>
   </g>
   <g id="text_12">
    <!-- C3 -->
    <g transform="translate(181.926642 61.142222)scale(0.22 -0.22)">
     <defs>
      <path id="DejaVuSans-33" d="M 2597 2516 
Q 3050 2419 3304 2112 
Q 3559 1806 3559 1356 
Q 3559 666 3084 287 
Q 2609 -91 1734 -91 
Q 1441 -91 1130 -33 
Q 819 25 488 141 
L 488 750 
Q 750 597 1062 519 
Q 1375 441 1716 441 
Q 2309 441 2620 675 
Q 2931 909 2931 1356 
Q 2931 1769 2642 2001 
Q 2353 2234 1838 2234 
L 1294 2234 
L 1294 2753 
L 1863 2753 
Q 2328 2753 2575 2939 
Q 2822 3125 2822 3475 
Q 2822 3834 2567 4026 
Q 2313 4219 1838 4219 
Q 1578 4219 1281 4162 
Q 984 4106 628 3988 
L 628 4550 
Q 988 4650 1302 4700 
Q 1616 4750 1894 4750 
Q 2613 4750 3031 4423 
Q 3450 4097 3450 3541 
Q 3450 3153 3228 2886 
Q 3006 2619 2597 2516 
z
" transform="scale(0.015625)"/>
     </defs>
     <use xlink:href="#DejaVuSans-43"/>
     <use xlink:href="#DejaVuSans-33" x="69.824219"/>
    </g>
   </g>
   <g id="text_13">
    <!-- C4 -->
    <g transform="translate(390.129583 250.306667)scale(0.22 -0.22)">
     <defs>
      <path id="DejaVuSans-34" d="M 2419 4116 
L 825 1625 
L 2419 1625 
L 2419 4116 
z
M 2253 4666 
L 3047 4666 
L 3047 1625 
L 3713 1625 
L 3713 1100 
L 3047 1100 
L 3047 0 
L 2419 0 
L 2419 1100 
L 313 1100 
L 313 1709 
L 2253 4666 
z
" transform="scale(0.015625)"/>
     </defs>
     <use xlink:href="#DejaVuSans-43"/>
     <use xlink:href="#DejaVuSans-34" x="69.824219"/>
    </g>
   </g>
   <g id="text_14">
    <!-- C5 -->
    <g transform="translate(320.728603 61.142222)scale(0.22 -0.22)">
     <use xlink:href="#DejaVuSans-43"/>
     <use xlink:href="#DejaVuSans-35" x="69.824219"/>
    </g>
   </g>
   <g id="text_15">
    <!-- V0 -->
    <g transform="translate(147.226152 112.071111)scale(0.22 -0.22)">
     <defs>
      <path id="DejaVuSans-56" d="M 1831 0 
L 50 4666 
L 709 4666 
L 2188 738 
L 3669 4666 
L 4325 4666 
L 2547 0 
L 1831 0 
z
" transform="scale(0.015625)"/>
     </defs>
     <use xlink:href="#DejaVuSans-56"/>
     <use xlink:href="#DejaVuSans-30" x="68.408203"/>
    </g>
   </g>
   <g id="text_16">
    <!-- V1 -->
    <g transform="translate(77.825172 112.071111)scale(0.22 -0.22)">
     <use xlink:href="#DejaVuSans-56"/>
     <use xlink:href="#DejaVuSans-31" x="68.408203"/>
    </g>
   </g>
   <g id="text_17">
    <!-- V2 -->
    <g transform="translate(181.926642 53.866667)scale(0.22 -0.22)">
     <use xlink:href="#DejaVuSans-56"/>
     <use xlink:href="#DejaVuSans-32" x="68.408203"/>
    </g>
   </g>
   <g id="text_18">
    <!-- V3 -->
    <g transform="translate(164.576397 53.866667)scale(0.22 -0.22)">
     <use xlink:href="#DejaVuSans-56"/>
     <use xlink:href="#DejaVuSans-33" x="68.408203"/>
    </g>
   </g>
   <g id="text_19">
    <!-- V4 -->
    <g transform="translate(129.875907 272.133333)scale(0.22 -0.22)">
     <use xlink:href="#DejaVuSans-56"/>
     <use xlink:href="#DejaVuSans-34" x="68.408203"/>
    </g>
   </g>
   <g id="text_20">
    <!-- V5 -->
    <g transform="translate(112.525662 243.031111)scale(0.22 -0.22)">
     <use xlink:href="#DejaVuSans-56"/>
     <use xlink:href="#DejaVuSans-35" x="68.408203"/>
    </g>
   </g>
   <g id="text_21">
    <!-- V6 -->
    <g transform="translate(77.825172 286.684444)scale(0.22 -0.22)">
     <defs>
      <path id="DejaVuSans-36" d="M 2113 2584 
Q 1688 2584 1439 2293 
Q 1191 2003 1191 1497 
Q 1191 994 1439 701 
Q 1688 409 2113 409 
Q 2538 409 2786 701 
Q 3034 994 3034 1497 
Q 3034 2003 2786 2293 
Q 2538 2584 2113 2584 
z
M 3366 4563 
L 3366 3988 
Q 3128 4100 2886 4159 
Q 2644 4219 2406 4219 
Q 1781 4219 1451 3797 
Q 1122 3375 1075 2522 
Q 1259 2794 1537 2939 
Q 1816 3084 2150 3084 
Q 2853 3084 3261 2657 
Q 3669 2231 3669 1497 
Q 3669 778 3244 343 
Q 2819 -91 2113 -91 
Q 1303 -91 875 529 
Q 447 1150 447 2328 
Q 447 3434 972 4092 
Q 1497 4750 2381 4750 
Q 2619 4750 2861 4703 
Q 3103 4656 3366 4563 
z
" transform="scale(0.015625)"/>
     </defs>
     <use xlink:href="#DejaVuSans-56"/>
     <use xlink:href="#DejaVuSans-36" x="68.408203"/>
    </g>
   </g>
   <g id="text_22">
    <!-- V7 -->
    <g transform="translate(372.779338 257.582222)scale(0.22 -0.22)">
     <defs>
      <path id="DejaVuSans-37" d="M 525 4666 
L 3525 4666 
L 3525 4397 
L 1831 0 
L 1172 0 
L 2766 4134 
L 525 4134 
L 525 4666 
z
" transform="scale(0.015625)"/>
     </defs>
     <use xlink:href="#DejaVuSans-56"/>
     <use xlink:href="#DejaVuSans-37" x="68.408203"/>
    </g>
   </g>
   <g id="text_23">
    <!-- V8 -->
    <g transform="translate(390.129583 228.48)scale(0.22 -0.22)">
     <defs>
      <path id="DejaVuSans-38" d="M 2034 2216 
Q 1584 2216 1326 1975 
Q 1069 1734 1069 1313 
Q 1069 891 1326 650 
Q 1584 409 2034 409 
Q 2484 409 2743 651 
Q 3003 894 3003 1313 
Q 3003 1734 2745 1975 
Q 2488 2216 2034 2216 
z
M 1403 2484 
Q 997 2584 770 2862 
Q 544 3141 544 3541 
Q 544 4100 942 4425 
Q 1341 4750 2034 4750 
Q 2731 4750 3128 4425 
Q 3525 4100 3525 3541 
Q 3525 3141 3298 2862 
Q 3072 2584 2669 2484 
Q 3125 2378 3379 2068 
Q 3634 1759 3634 1313 
Q 3634 634 3220 271 
Q 2806 -91 2034 -91 
Q 1263 -91 848 271 
Q 434 634 434 1313 
Q 434 1759 690 2068 
Q 947 2378 1403 2484 
z
M 1172 3481 
Q 1172 3119 1398 2916 
Q 1625 2713 2034 2713 
Q 2441 2713 2670 2916 
Q 2900 3119 2900 3481 
Q 2900 3844 2670 4047 
Q 2441 4250 2034 4250 
Q 1625 4250 1398 4047 
Q 1172 3844 1172 3481 
z
" transform="scale(0.015625)"/>
     </defs>
     <use xlink:href="#DejaVuSans-56"/>
     <use xlink:href="#DejaVuSans-38" x="68.408203"/>
    </g>
   </g>
   <g id="text_24">
    <!-- V9 -->
    <g transform="translate(303.378358 53.866667)scale(0.22 -0.22)">
     <defs>
      <path id="DejaVuSans-39" d="M 703 97 
L 703 672 
Q 941 559 1184 500 
Q 1428 441 1663 441 
Q 2288 441 2617 861 
Q 2947 1281 2994 2138 
Q 2813 1869 2534 1725 
Q 2256 1581 1919 1581 
Q 1219 1581 811 2004 
Q 403 2428 403 3163 
Q 403 3881 828 4315 
Q 1253 4750 1959 4750 
Q 2769 4750 3195 4129 
Q 3622 3509 3622 2328 
Q 3622 1225 3098 567 
Q 2575 -91 1691 -91 
Q 1453 -91 1209 -44 
Q 966 3 703 97 
z
M 1959 2075 
Q 2384 2075 2632 2365 
Q 2881 2656 2881 3163 
Q 2881 3666 2632 3958 
Q 2384 4250 1959 4250 
Q 1534 4250 1286 3958 
Q 1038 3666 1038 3163 
Q 1038 2656 1286 2365 
Q 1534 2075 1959 2075 
z
" transform="scale(0.015625)"/>
     </defs>
     <use xlink:href="#DejaVuSans-56"/>
     <use xlink:href="#DejaVuSans-39" x="68.408203"/>
    </g>
   </g>
  </g>
 </g>
 <defs>
  <clipPath id="p3e340c6443">
   <rect x="65.68" y="32.04" width="353.945" height="261.92"/>
  </clipPath>
 </defs>
</svg>
